<svg version="1.2" xmlns="http://www.w3.org/2000/svg" viewBox="0 0 723 167" width="750" height="173"><style>.a{fill:#010102}</style><path  d="m40.3 86.3c0-5.9 1.4-11.7 3.6-16 2.6-4.8 6.2-7.9 12.1-7.9 11.6 0 15.5 6.3 15.5 25.1v17.5c0 13.5-1.2 15-11.9 15.6v5.4h42.4v-5.4c-11-0.6-11.8-2-11.8-16.7v-17.6c0-6.1 1.2-11.5 3.5-15.7 2.7-4.8 6.4-8.2 12.7-8.2 11.1 0 15 6.5 15 25.1v17.5c0 13.4-1.2 15.1-11.9 15.6v5.4h42.3v-5.4c-10.6-0.6-11.7-2-11.7-16.7v-20.6c0-11.6-1.7-17.8-5.2-21.8-4.4-4.9-12.7-7.7-23.3-7.7-10 0-19.4 4.4-25.8 11.9h-0.5c-3.9-7.7-11.5-11.9-23.3-11.9-9.9 0-17 3.3-24.5 11.6h-0.8l-1.6-11.6-25.8 5v4.6c8.5 0 10.3 0.8 11.4 5.3 0.6 2.4 0.9 9.5 0.9 19.7v16.6c0 13.5-1.3 15-12.1 15.6v5.4h42.3v-5.4c-10.7-0.6-11.5-1.8-11.5-16.7zm144.1 14.3c0 7.9-6.4 14.2-15.1 14.2-4.3 0-7.5-3.2-7.5-8.4 0-6.3 7.8-11.6 22.6-18.5zm-18.9-11.6c-16.1 6.5-22.6 13.4-22.6 21.1 0 10.2 7.5 17.2 18.6 17.2 10.5 0 19-5 24.1-14.2h0.7c0 9.1 4.4 14.3 12.6 14.3 6.5 0 12.3-2.8 14.7-7.2l-2-3.9c-1.5 1.2-3 1.7-4.7 1.7-3.1 0-4.6-3.7-4.6-11.3v-29.3c0-17-7.7-23.6-27.8-23.6-18.7 0-28.2 5.5-28.2 13.9 0 5.5 2.8 8.7 7.7 8.7 5.1 0 7.9-2.7 9.5-7.1 2.3-6.4 4.6-8.9 9.7-8.9 7.6 0 11.2 4.5 11.2 14.8v5.6zm47.4-26.5v48.6c0 10.3 7.2 16.3 19.5 16.3 9.1 0 15.3-3.3 17.7-9.5l-2.8-3.9c-1.9 3.4-4.3 4.9-7.9 4.9-5.7 0-7.9-4.3-7.9-15.3v-41.1h15.4v-7.3h-15.4v-16.2h-6.9c-3.6 7.9-10.9 14.4-21.5 17.5v6zm89.8 47.4c-6.6 5.1-14.2 8-21.4 8-12.9 0-20-10.4-20-28.9 0-17.2 6.1-27.4 16.4-27.4 4.5 0 6 1.2 11.3 9.6 3.1 4.9 5.9 6.9 10.1 6.9 4.9 0 8.1-3.3 8.1-8.5 0-8.9-11.9-15.8-27.9-15.8-22.9 0-38.6 15-38.6 37.1 0 21.4 14.8 35.9 36.4 35.9 11.7 0 22.4-4.3 29.1-11.8zm25.5-23.6c0-7.5 1.8-13.6 4.8-17.8 3.1-3.8 7.3-5.8 12.7-5.8 10.1 0 13.7 6.9 13.7 25.9v16.5c0 13.5-1.2 15.1-11.9 15.6v5.4h41.9v-5.4c-10.6-0.6-11.4-1.7-11.4-16.6v-20.7c0-8.2-2.8-16.2-7.5-21.5-4.8-5.4-11.6-8.1-20.3-8.1-9.5 0-16.2 3.4-21.7 10.6h-0.6v-49.4l-29.8 5.1v5c8 0 9.6 0.8 10.6 5.3 0.7 3.2 0.9 9.1 0.9 19.7v55c0 13.5-1.1 15-11.9 15.6v5.4h42.2v-5.4c-10.7-0.6-11.7-2-11.7-16.6z"/><path  d="m548 53.8l-31.1 5v4.6c8.3 0 10.5 1.2 11.4 5.3 0.5 2.3 1.1 8.7 1.1 18.5v49.2c0 12.6-3.4 17.3-9.9 17.3-9.7 0-7.7-13.1-17.7-13.1-3.7 0-7.2 2.5-7.2 6.9 0 7.5 8.3 13.3 21.9 13.3 20.2 0 31.5-12.3 31.5-34.5zm-19.7-28.4c0 5.8 4.5 10.3 10.3 10.3 5.9 0 10.4-4.5 10.4-10.3 0-5.9-4.5-10.4-10.4-10.4-5.8 0-10.3 4.5-10.3 10.4zm59.5 28.4c-21.1 0-38.9 15.1-38.9 36.2 0 21.8 17.8 37.4 38.9 37.4 21.3 0 39.5-15.7 39.5-37.4 0-21-18.2-36.2-39.5-36.2zm0 7.7c11.1 0 18.5 11.7 18.5 28.7 0 17.5-7.2 29-18.5 29-10.9 0-17.9-11.4-17.9-29 0-17.2 7.1-28.7 17.9-28.7zm59.2 26.8c0-6.6 1-12.1 3.1-16.2 3-6.3 8.8-9.9 15.2-9.9 10.8 0 16.3 10 16.3 28.5 0 19-5.7 29-16.3 29-10.6 0-18.3-9.7-18.3-23zm-0.3-73.3l-30 5.3v4.6c7.7 1.1 8.7 1.6 9.8 4.3 1.2 3.2 1.7 8.7 1.7 17.2v79.6h4.6l10.2-8.9c5.2 6.3 14.4 10.4 24.2 10.4 19 0 34.8-15.8 34.8-37 0-20.5-14.5-36.7-33.4-36.7-9.2 0-16.8 3.9-21.4 10.6h-0.5z"/><path  d="m455.7 84.4c-4.3 12.2-4.9 14.3-4.9 16.3 0 3 1.3 4.9 3.3 4.9 3.5 0 10-5.7 12.8-11.2l-1.6-0.9c-4 5-6.4 7.3-7.7 7.3-0.4 0-0.6-0.3-0.6-1.2 0-1.4 0.3-2.3 3.1-10.8 2.3-6.7 3.1-9.5 3.1-11.9 0-3.7-1.6-5.4-4.8-5.4-4.4 0-7.9 3.1-12.5 11l-0.2-0.2c0.8-2.9 1.1-4.1 1.1-5.2 0-3.5-1.9-5.6-5.1-5.6-4.3 0-8.5 3.7-12.3 10.8l-0.1-0.2c0.7-1.9 1-3.7 1-5.7 0-3.5-1-4.9-3.6-4.9-4.6 0-8.2 4.1-11.1 12.5l1.9 0.9c1.8-5.2 5-10 6.8-10 0.7 0 1.1 0.7 1.1 1.8 0 1.6-0.8 4.4-3.9 14.1l-4.6 14.2h5.4l5.2-14.1c2.9-7.8 9.4-16.1 12.7-16.1 1 0 1.6 0.7 1.6 2 0 1.7-1 5.2-4.5 15.7l-4.1 12.5h5.9c5-14.5 6.2-17.4 8.8-21.4 3.5-5.7 6.6-8.8 8.9-8.8 0.8 0 1.2 0.5 1.2 1.8 0 1-0.2 1.6-2.3 7.8zm18.6 19.9c-1.8 5.3-9.1 13.1-12.2 13.1-2.4 0-1.5-4.7-4.8-4.7-1.9 0-3.2 1.5-3.2 3.5 0 2.7 2.2 4.9 5.6 4.9 4.6 0 10-3.9 16.2-12 8.3-10.7 16.1-26.3 16.1-33 0-2.5-1-4.6-3.1-4.6-1.6 0-3.4 1.4-3.4 4.4 0 1.4 0.4 5.2 0.4 6.9 0 5-3.7 11.6-6.8 15.5h-0.3l-2.1-10c-1.2-5.5-2.4-10.1-3.4-12.7-1.2-3.1-2.1-4.1-3.7-4.1-3.7 0-7.4 5.5-9.2 13.2l2.3 0.6c1.3-5.1 2.6-7.4 4.1-7.4 1.5 0 2.9 2.2 4.2 9z"/><path class="a" d="m406 117h94v3.7h-94z"/></svg>