<svg
            width="50"
            height="23"
            viewBox="0 0 50 23"
            fill="none"
            xmlns="http://www.w3.org/2000/svg"
          >
            <path
              fill-rule="evenodd"
              clip-rule="evenodd"
              d="M13.257 6.91303C12.9564 5.59274 11.6292 4.76324 10.2928 5.06029C9.23504 5.29541 8.48848 6.16585 8.37228 7.17329C8.34778 7.26242 8.32812 7.35383 8.31362 7.4473C7.78568 10.8511 7.14771 13.2411 6.50191 14.8785C5.84405 16.5464 5.24855 17.2525 4.92817 17.5123C4.86671 17.5621 4.82359 17.5907 4.79577 17.6066C4.77173 17.5952 4.73727 17.5765 4.69306 17.5462C4.59946 17.482 4.48925 17.3844 4.37855 17.2544C3.49689 16.2187 1.9323 16.0852 0.883934 16.9562C-0.164428 17.8272 -0.299565 19.3729 0.582098 20.4087C1.26107 21.2063 2.29848 22.057 3.6656 22.3851C5.16555 22.745 6.72961 22.3915 8.07516 21.3005C9.27368 20.3287 10.2367 18.8329 11.0289 16.8946C11.57 18.2424 12.1241 19.3369 12.6956 20.1946C13.4494 21.326 14.4715 22.4109 15.882 22.8279C17.4786 23.2998 18.8783 22.7334 19.8497 21.9513C20.7555 21.2221 21.4503 20.2015 21.9905 19.2062C22.3285 18.5834 22.6421 17.9024 22.9322 17.1885C23.7019 18.9854 24.6285 20.3796 25.7673 21.3016C27.1139 22.392 28.6782 22.7446 30.1779 22.3853C31.5453 22.0576 32.5835 21.2076 33.2635 20.4099C34.1459 19.3748 34.0118 17.829 32.964 16.9573C31.9163 16.0855 30.3516 16.218 29.4692 17.2531C29.3583 17.3832 29.2478 17.4809 29.1538 17.5453C29.109 17.5759 29.0731 17.5955 29.0475 17.6074C29.0193 17.5916 28.9751 17.5626 28.9116 17.5112C28.5905 17.2512 27.9942 16.545 27.3356 14.8774C26.689 13.2403 26.0501 10.8505 25.5215 7.4468C25.5211 7.44436 25.5207 7.44194 25.5204 7.43951C25.5163 6.28134 24.6779 5.25437 23.4829 5.03997C22.1351 4.79815 20.8441 5.68153 20.5993 7.01305C20.1595 9.40551 19.5348 11.995 18.781 14.1583C18.4039 15.2407 18.0112 16.1673 17.6189 16.8902C17.4003 17.2928 17.2065 17.5858 17.0477 17.7922C16.9855 17.7118 16.9158 17.6154 16.839 17.5001C15.8505 16.0165 14.6014 12.8163 13.257 6.91303ZM29.0871 17.6245C29.0868 17.6236 29.0809 17.621 29.0705 17.6192C29.0822 17.6245 29.0874 17.6254 29.0871 17.6245ZM4.7552 17.6247C4.75548 17.6239 4.761 17.6214 4.77089 17.6196C4.75986 17.6246 4.75491 17.6255 4.7552 17.6247Z"
              fill="#6466E9"
            />
            <path
              fill-rule="evenodd"
              clip-rule="evenodd"
              d="M25.4104 6.91303C25.1097 5.59274 23.7826 4.76324 22.4462 5.06029C21.3884 5.29541 20.6418 6.16585 20.5256 7.17329C20.5011 7.26242 20.4814 7.35383 20.4669 7.4473C19.939 10.8511 19.301 13.2411 18.6552 14.8785C17.9974 16.5464 17.4019 17.2525 17.0815 17.5123C17.02 17.5621 16.9769 17.5907 16.9491 17.6066C16.9251 17.5952 16.8906 17.5765 16.8464 17.5462C16.7528 17.482 16.6426 17.3844 16.5319 17.2544C15.6502 16.2187 14.0856 16.0852 13.0373 16.9562C11.9889 17.8272 11.8538 19.3729 12.7354 20.4087C13.4144 21.2063 14.4518 22.057 15.8189 22.3851C17.3189 22.745 18.8829 22.3915 20.2285 21.3005C21.427 20.3287 22.39 18.8329 23.1822 16.8946C23.7233 18.2424 24.2775 19.3369 24.8489 20.1946C25.6027 21.326 26.6248 22.4109 28.0353 22.8279C29.632 23.2998 31.0316 22.7334 32.003 21.9513C32.9088 21.2221 33.6036 20.2015 34.1438 19.2062C34.4819 18.5834 34.7954 17.9024 35.0855 17.1885C35.8552 18.9854 36.7819 20.3796 37.9206 21.3016C39.2673 22.392 40.8315 22.7446 42.3312 22.3853C43.6986 22.0576 44.7368 21.2076 45.4168 20.4099C46.2992 19.3748 46.1651 17.829 45.1174 16.9573C44.0696 16.0855 42.5049 16.218 41.6225 17.2531C41.5117 17.3832 41.4012 17.4809 41.3072 17.5453C41.2623 17.5759 41.2264 17.5955 41.2008 17.6074C41.1726 17.5916 41.1285 17.5626 41.065 17.5112C40.7438 17.2512 40.1475 16.545 39.4889 14.8774C38.8423 13.2403 38.2035 10.8505 37.6748 7.4468C37.6744 7.44436 37.6741 7.44194 37.6737 7.43951C37.6696 6.28134 36.8312 5.25437 35.6362 5.03997C34.2884 4.79815 32.9974 5.68153 32.7526 7.01305C32.3129 9.40551 31.6881 11.995 30.9344 14.1583C30.5572 15.2407 30.1646 16.1673 29.7722 16.8902C29.5536 17.2928 29.3598 17.5858 29.201 17.7922C29.1389 17.7118 29.0691 17.6154 28.9923 17.5001C28.0039 16.0165 26.7548 12.8163 25.4104 6.91303ZM41.2404 17.6245C41.2401 17.6236 41.2342 17.621 41.2238 17.6192C41.2355 17.6245 41.2407 17.6254 41.2404 17.6245ZM16.9085 17.6247C16.9088 17.6239 16.9143 17.6214 16.9242 17.6196C16.9132 17.6246 16.9082 17.6255 16.9085 17.6247Z"
              fill="#6466E9"
            />
          </svg>