<?xml version="1.0" standalone="no"?>
<!DOCTYPE svg PUBLIC "-//W3C//DTD SVG 20010904//EN"
 "http://www.w3.org/TR/2001/REC-SVG-20010904/DTD/svg10.dtd">
<svg version="1.0" xmlns="http://www.w3.org/2000/svg"
 width="260.000000pt" height="260.000000pt" viewBox="0 0 260.000000 260.000000"
 preserveAspectRatio="xMidYMid meet">
<metadata>
Created by potrace 1.14, written by Peter Selinger 2001-2017
</metadata>
<g transform="translate(0.000000,260.000000) scale(0.100000,-0.100000)"
fill="#000000" stroke="none">
<path d="M264 2592 c3 -5 -5 -8 -17 -7 -63 5 -165 -75 -215 -170 l-27 -50 -2
-1050 c-3 -884 -1 -1054 11 -1077 8 -15 12 -29 8 -32 -3 -3 2 -14 11 -23 8
-10 17 -24 19 -31 5 -24 63 -78 109 -103 24 -13 46 -26 49 -29 3 -3 12 -7 20
-10 30 -10 2120 -10 2120 0 0 5 7 7 15 4 8 -4 15 -1 15 5 0 6 6 8 14 5 7 -3
16 2 20 11 3 9 10 13 16 10 5 -3 25 8 42 24 18 17 36 31 41 31 4 0 7 7 7 16 0
8 3 13 8 10 4 -2 16 16 27 40 11 24 23 44 28 44 5 0 5 9 2 20 -4 11 -2 20 4
20 15 0 15 2086 1 2095 -6 4 -8 10 -5 14 7 12 -40 103 -67 128 -64 62 -83 78
-88 77 -13 -2 -40 9 -40 17 0 4 -8 9 -17 10 -60 7 -2113 8 -2109 1z m1981
-528 c11 -2 38 -6 59 -9 44 -6 66 -20 66 -41 0 -11 -69 -109 -120 -171 -6 -7
-10 -15 -10 -18 0 -3 -8 -13 -17 -23 -10 -10 -25 -29 -33 -41 -14 -21 -36 -49
-60 -78 -6 -7 -7 -13 -3 -13 4 0 1 -6 -7 -13 -25 -20 -69 -84 -63 -91 4 -3 2
-6 -4 -6 -5 0 -27 -26 -49 -57 -21 -32 -43 -61 -49 -65 -5 -4 -7 -8 -3 -8 4 0
-4 -12 -17 -26 -13 -14 -27 -35 -30 -45 -4 -11 -11 -19 -16 -19 -5 0 -9 -6 -9
-14 0 -8 -4 -16 -8 -18 -4 -1 -28 -33 -51 -70 -24 -38 -47 -68 -51 -68 -4 0
-11 -11 -14 -25 -4 -14 -11 -25 -16 -25 -6 0 -10 -6 -10 -14 0 -8 -6 -21 -13
-28 -20 -21 -67 -97 -67 -108 0 -5 -5 -10 -11 -10 -5 0 -7 -4 -4 -10 3 -5 1
-10 -4 -10 -6 0 -11 -7 -11 -15 0 -8 -5 -15 -11 -15 -6 0 -9 -6 -6 -14 3 -8 0
-17 -7 -19 -7 -3 -16 -15 -19 -27 -5 -18 -2 -20 16 -14 25 7 78 43 89 59 4 5
8 6 8 1 0 -5 16 7 35 27 20 21 40 37 45 37 6 0 10 7 10 15 0 8 7 15 15 15 8 0
19 9 25 20 17 32 79 90 85 79 9 -13 16 -49 18 -84 1 -16 7 -33 12 -37 6 -5 5
-11 -3 -17 -8 -4 -13 -11 -13 -15 3 -20 -4 -31 -49 -77 -27 -28 -50 -56 -50
-62 0 -6 -3 -8 -6 -4 -3 3 -16 -3 -28 -14 -11 -11 -34 -30 -49 -42 -15 -12
-40 -32 -55 -44 -14 -12 -39 -28 -54 -34 -15 -6 -28 -15 -28 -20 0 -5 -3 -9
-7 -8 -14 2 -53 -13 -53 -20 0 -9 -80 -7 -110 3 -42 14 -68 50 -77 106 -5 28
16 100 29 100 4 0 7 3 6 8 -2 12 13 43 67 132 28 47 58 96 66 110 7 13 20 30
27 38 6 7 12 20 12 28 0 8 4 14 9 14 5 0 14 13 21 30 7 16 16 27 21 24 5 -3 9
4 9 15 0 11 8 25 18 30 9 6 13 11 7 11 -7 0 -7 3 0 8 18 12 66 82 58 82 -4 0
-3 4 3 8 6 4 25 30 44 57 19 28 38 53 44 57 6 4 7 8 3 8 -4 0 3 12 17 26 13
15 30 38 38 53 7 14 21 35 31 46 10 11 23 29 29 40 l11 20 -23 -20 c-33 -29
-79 -75 -75 -75 2 0 -32 -35 -75 -79 -43 -43 -77 -81 -74 -84 3 -3 -3 -8 -13
-11 -10 -3 -25 -15 -33 -27 -8 -11 -68 -74 -132 -140 -65 -66 -118 -121 -118
-124 0 -9 -82 -85 -92 -85 -6 0 -9 -3 -5 -6 3 -3 -74 -85 -170 -182 -170 -169
-179 -176 -219 -178 -73 -4 -126 54 -98 107 7 15 10 29 7 33 -4 3 -1 6 5 6 7
0 12 7 12 15 0 8 16 46 35 84 19 37 35 73 35 79 0 6 4 12 8 14 8 3 62 114 61
124 0 4 3 10 8 13 4 3 24 38 43 76 19 39 39 73 43 76 5 3 8 10 8 15 -1 5 5 16
12 24 7 9 12 21 9 28 -2 7 1 12 8 12 6 0 9 4 6 9 -3 5 1 14 9 21 8 6 19 27 25
46 7 19 15 32 19 30 4 -3 8 5 8 17 1 12 7 23 13 25 5 2 8 8 4 13 -3 5 0 9 5 9
6 0 11 6 11 14 0 8 7 22 16 30 8 9 13 16 9 16 -3 0 6 17 19 37 14 20 23 39 21
42 -5 5 -22 -13 -125 -139 -25 -30 -53 -64 -62 -74 -10 -10 -15 -24 -11 -29 3
-6 1 -7 -4 -4 -6 4 -19 -6 -29 -21 -9 -15 -25 -32 -33 -39 -9 -7 -12 -13 -7
-13 6 0 1 -7 -10 -15 -10 -8 -16 -15 -12 -15 4 0 -8 -15 -27 -34 -18 -19 -32
-36 -29 -38 2 -3 -7 -15 -21 -28 -14 -13 -25 -28 -25 -35 0 -6 -9 -17 -20 -25
-11 -8 -20 -18 -20 -23 0 -5 -16 -28 -35 -51 -19 -24 -32 -46 -28 -49 3 -4 1
-7 -5 -7 -5 0 -21 -17 -33 -37 -13 -21 -29 -42 -36 -46 -7 -5 -11 -12 -8 -18
4 -5 1 -9 -4 -9 -6 0 -11 -6 -11 -13 0 -7 -9 -23 -20 -35 -11 -12 -20 -26 -20
-32 0 -5 -4 -10 -10 -10 -5 0 -10 -7 -10 -15 0 -8 -3 -15 -8 -15 -4 0 -12 -9
-17 -19 -26 -52 -79 -137 -89 -143 -6 -4 -7 -8 -3 -8 5 0 0 -12 -11 -27 -10
-16 -34 -57 -53 -93 -18 -36 -40 -71 -47 -79 -22 -22 -107 -2 -148 35 -14 12
-26 74 -15 74 4 0 13 16 21 35 8 19 18 35 22 35 5 0 7 4 4 9 -3 5 1 12 10 15
8 3 12 10 9 16 -3 5 -2 10 3 10 4 0 16 15 25 32 18 36 39 70 47 78 3 3 34 48
69 100 36 52 69 98 75 102 7 5 7 8 1 8 -5 0 -2 5 8 11 9 5 17 17 17 24 0 8 5
15 10 15 6 0 10 7 10 15 0 8 5 15 10 15 6 0 10 7 10 15 0 8 4 15 8 15 4 0 25
25 47 56 22 31 46 62 53 70 7 8 11 14 7 14 -3 0 10 17 29 38 20 20 36 40 36
44 0 4 6 13 13 20 6 7 25 31 41 53 17 22 38 48 49 57 10 9 18 19 17 23 -2 7
52 76 95 119 16 17 29 33 28 36 -2 6 72 94 104 126 13 12 23 24 23 28 0 3 27
33 59 66 33 33 58 60 55 60 -4 0 82 79 104 95 7 6 22 18 33 28 10 9 19 14 19
11 0 -4 6 -1 14 5 7 6 31 10 52 9 22 0 50 4 62 11 16 9 22 9 22 0 0 -6 7 -8
16 -5 9 4 23 1 32 -6 8 -7 16 -12 16 -10 1 2 11 -1 24 -5 l23 -9 -43 -84 c-23
-47 -48 -91 -55 -98 -7 -7 -13 -20 -13 -28 0 -8 -5 -14 -12 -14 -6 0 -8 -3 -5
-6 4 -4 -2 -19 -13 -34 -11 -16 -20 -33 -20 -39 0 -6 -5 -11 -12 -11 -6 0 -8
-3 -5 -6 4 -4 -2 -19 -12 -33 -10 -14 -33 -54 -51 -89 -18 -34 -36 -65 -41
-68 -5 -3 -7 -10 -4 -15 4 -5 1 -9 -4 -9 -6 0 -11 -7 -11 -15 0 -8 -5 -15 -11
-15 -5 0 -8 -4 -4 -9 3 -5 0 -13 -6 -17 -12 -7 -44 -74 -41 -86 1 -5 -5 -8
-13 -8 -8 0 -14 -3 -13 -7 3 -11 -43 -105 -59 -121 -7 -7 -13 -18 -13 -23 0
-16 -3 -24 -17 -37 -7 -8 -11 -18 -8 -23 4 -5 2 -9 -2 -9 -5 0 -16 -17 -26
-37 l-17 -38 30 35 c55 64 125 143 158 177 17 19 32 36 32 37 0 4 160 173 268
282 56 58 102 110 102 116 0 6 3 9 6 5 3 -3 50 38 103 91 118 117 181 175 181
166 0 -4 9 5 20 19 11 14 41 39 67 56 25 17 42 31 37 32 -5 1 2 5 16 9 22 7
52 6 115 -6z"/>
</g>
</svg>
